<svg t="1623833769150" class="icon" viewBox="0 0 1024 1024" version="1.1" xmlns="http://www.w3.org/2000/svg" p-id="5730" width="128" height="128"><path d="M826.368 217.429333h-10.24V172.032c0-51.541333-41.984-93.525333-93.525333-93.525333H307.541333C256 78.506667 214.016 120.490667 214.016 172.032v45.738667h-11.605333c-70.314667 0-127.658667 57.344-127.658667 127.658666v346.453334c0 51.2 41.642667 92.842667 92.842667 92.842666h46.08v115.029334c0 32.426667 26.282667 58.709333 58.709333 58.709333h485.034667c15.018667 0 29.696-5.802667 40.96-16.384l0.682666-0.682667c10.922667-10.922667 17.066667-25.941333 17.066667-41.642666v-115.029334h45.738667c24.917333 0 48.469333-9.898667 65.877333-27.306666 17.408-17.749333 26.965333-40.96 26.624-65.536V345.088c-0.341333-70.314667-57.685333-127.658667-128-127.658667zM261.802667 172.032c0-25.258667 20.48-45.738667 45.738666-45.738667h415.061334c25.258667 0 45.738667 20.48 45.738666 45.738667v45.738667H261.802667V172.032zM768 899.413333c0 2.730667-1.024 5.802667-2.730667 7.509334-1.365333 1.365333-4.437333 3.413333-8.192 3.413333h-484.693333c-5.802667 0-10.922667-5.12-10.922667-10.922667V552.96c0-5.802667 5.12-10.922667 10.922667-10.922667h485.034667c3.072 0 6.144 1.024 7.850666 3.072 2.048 2.048 3.072 4.778667 3.072 7.850667v346.453333z m138.24-207.530666c0 11.946667-4.437333 23.210667-12.629333 31.744-8.533333 8.533333-19.797333 13.312-32.085334 13.312H815.786667V552.96c0-16.042667-6.144-30.72-17.066667-41.642667-10.922667-10.922667-25.941333-17.066667-41.642667-17.066666h-484.693333c-32.426667 0-58.709333 26.282667-58.709333 58.709333v183.637333H167.594667c-24.917333 0-45.056-20.138667-45.056-45.056V345.088c0-44.032 35.84-79.872 79.872-79.872h623.957333c44.032 0 79.872 35.84 79.872 79.872v346.794667z" fill="#2c2c2c" p-id="5731"></path><path d="M647.850667 702.464h-266.24c-17.408 0-31.744 14.336-31.744 31.744 0 17.408 14.336 31.744 31.744 31.744h265.898666c17.408 0 31.744-14.336 32.085334-31.744 0-17.408-14.336-31.744-31.744-31.744z" fill="#2c2c2c" p-id="5732"></path><path d="M713.181539 402.085928a51.541333 51.541333 0 1 0 72.88918-72.891725 51.541333 51.541333 0 1 0-72.88918 72.891725Z" fill="#2c2c2c" p-id="5733"></path></svg>