<svg t="1623835531279" class="icon" viewBox="0 0 1024 1024" version="1.1" xmlns="http://www.w3.org/2000/svg" p-id="7328" width="128" height="128"><path d="M780.8 363.008H234.496c-82.432 0-148.992 66.56-148.992 148.992v347.648c0 82.432 66.56 148.992 148.992 148.992H780.8c82.432 0 148.992-66.56 148.992-148.992V512c0-82.432-66.56-148.992-148.992-148.992z m74.24 496.64c0 40.96-33.28 74.24-74.24 74.24H234.496c-40.96 0-74.24-33.28-74.24-74.24V512c0-40.96 33.28-74.24 74.24-74.24H780.8c40.96 0 74.24 33.28 74.24 74.24v347.648z" fill="#2c2c2c" p-id="7329"></path><path d="M507.904 15.36c-137.216 0-248.32 111.104-248.32 248.32v173.568h496.64V263.68c0-137.216-111.104-248.32-248.32-248.32z m173.568 248.32v99.328H333.824V263.68c0-95.744 77.824-173.568 173.568-173.568 96.256 0 174.08 77.824 174.08 173.568z" fill="#2c2c2c" p-id="7330"></path><path d="M507.904 797.696c-20.48 0-37.376-16.896-37.376-37.376V611.328c0-20.48 16.896-37.376 37.376-37.376s37.376 16.896 37.376 37.376V760.32c-0.512 20.48-16.896 37.376-37.376 37.376z" fill="#2c2c2c" p-id="7331"></path></svg>